<svg xmlns="http://www.w3.org/2000/svg" width="1024" height="1024" viewBox="0 0 1024 1024">
<defs>
 <linearGradient id="bg" x1="0" y1="0" x2="0" y2="1"><stop offset="0" stop-color="#1c2226"/><stop offset="1" stop-color="#0a0d0f"/></linearGradient>
 <radialGradient id="sheen" cx="0.5" cy="0.35" r="0.7"><stop offset="0" stop-color="#ffffff" stop-opacity="0.07"/><stop offset="1" stop-color="#ffffff" stop-opacity="0"/></radialGradient>
 <filter id="glow" x="-20%" y="-20%" width="140%" height="140%"><feGaussianBlur stdDeviation="10" result="b"/><feMerge><feMergeNode in="b"/><feMergeNode in="SourceGraphic"/></feMerge></filter>
 <clipPath id="clip"><path d="M924.00,512.00 L923.99,573.83 L923.97,593.59 L923.94,607.95 L923.90,619.65 L923.84,629.70 L923.77,638.60 L923.69,646.64 L923.60,654.01 L923.49,660.85 L923.37,667.24 L923.24,673.26 L923.10,678.95 L922.94,684.36 L922.77,689.52 L922.59,694.46 L922.39,699.21 L922.18,703.77 L921.96,708.17 L921.73,712.42 L921.48,716.53 L921.23,720.52 L920.96,724.39 L920.67,728.15 L920.37,731.81 L920.07,735.37 L919.74,738.85 L919.41,742.23 L919.06,745.54 L918.70,748.78 L918.33,751.94 L917.94,755.03 L917.54,758.06 L917.13,761.02 L916.70,763.93 L916.26,766.77 L915.81,769.57 L915.35,772.31 L914.87,775.00 L914.38,777.64 L913.88,780.24 L913.36,782.79 L912.83,785.29 L912.28,787.76 L911.73,790.18 L911.16,792.56 L910.57,794.91 L909.98,797.22 L909.36,799.49 L908.74,801.73 L908.10,803.93 L907.45,806.10 L906.79,808.23 L906.11,810.34 L905.41,812.41 L904.71,814.45 L903.99,816.47 L903.25,818.45 L902.50,820.41 L901.74,822.34 L900.96,824.24 L900.17,826.11 L899.37,827.96 L898.55,829.78 L897.71,831.58 L896.87,833.35 L896.00,835.10 L895.12,836.83 L894.23,838.53 L893.32,840.21 L892.40,841.86 L891.46,843.50 L890.51,845.11 L889.54,846.70 L888.56,848.27 L887.56,849.81 L886.55,851.34 L885.52,852.85 L884.48,854.33 L883.42,855.80 L882.34,857.24 L881.25,858.67 L880.14,860.08 L879.01,861.46 L877.87,862.83 L876.71,864.18 L875.54,865.52 L874.34,866.83 L873.14,868.13 L871.91,869.41 L870.67,870.67 L869.41,871.91 L868.13,873.14 L866.83,874.34 L865.52,875.54 L864.18,876.71 L862.83,877.87 L861.46,879.01 L860.08,880.14 L858.67,881.25 L857.24,882.34 L855.80,883.42 L854.33,884.48 L852.85,885.52 L851.34,886.55 L849.81,887.56 L848.27,888.56 L846.70,889.54 L845.11,890.51 L843.50,891.46 L841.86,892.40 L840.21,893.32 L838.53,894.23 L836.83,895.12 L835.10,896.00 L833.35,896.87 L831.58,897.71 L829.78,898.55 L827.96,899.37 L826.11,900.17 L824.24,900.96 L822.34,901.74 L820.41,902.50 L818.45,903.25 L816.47,903.99 L814.45,904.71 L812.41,905.41 L810.34,906.11 L808.23,906.79 L806.10,907.45 L803.93,908.10 L801.73,908.74 L799.49,909.36 L797.22,909.98 L794.91,910.57 L792.56,911.16 L790.18,911.73 L787.76,912.28 L785.29,912.83 L782.79,913.36 L780.24,913.88 L777.64,914.38 L775.00,914.87 L772.31,915.35 L769.57,915.81 L766.77,916.26 L763.93,916.70 L761.02,917.13 L758.06,917.54 L755.03,917.94 L751.94,918.33 L748.78,918.70 L745.54,919.06 L742.23,919.41 L738.85,919.74 L735.37,920.07 L731.81,920.37 L728.15,920.67 L724.39,920.96 L720.52,921.23 L716.53,921.48 L712.42,921.73 L708.17,921.96 L703.77,922.18 L699.21,922.39 L694.46,922.59 L689.52,922.77 L684.36,922.94 L678.95,923.10 L673.26,923.24 L667.24,923.37 L660.85,923.49 L654.01,923.60 L646.64,923.69 L638.60,923.77 L629.70,923.84 L619.65,923.90 L607.95,923.94 L593.59,923.97 L573.83,923.99 L512.00,924.00 L450.17,923.99 L430.41,923.97 L416.05,923.94 L404.35,923.90 L394.30,923.84 L385.40,923.77 L377.36,923.69 L369.99,923.60 L363.15,923.49 L356.76,923.37 L350.74,923.24 L345.05,923.10 L339.64,922.94 L334.48,922.77 L329.54,922.59 L324.79,922.39 L320.23,922.18 L315.83,921.96 L311.58,921.73 L307.47,921.48 L303.48,921.23 L299.61,920.96 L295.85,920.67 L292.19,920.37 L288.63,920.07 L285.15,919.74 L281.77,919.41 L278.46,919.06 L275.22,918.70 L272.06,918.33 L268.97,917.94 L265.94,917.54 L262.98,917.13 L260.07,916.70 L257.23,916.26 L254.43,915.81 L251.69,915.35 L249.00,914.87 L246.36,914.38 L243.76,913.88 L241.21,913.36 L238.71,912.83 L236.24,912.28 L233.82,911.73 L231.44,911.16 L229.09,910.57 L226.78,909.98 L224.51,909.36 L222.27,908.74 L220.07,908.10 L217.90,907.45 L215.77,906.79 L213.66,906.11 L211.59,905.41 L209.55,904.71 L207.53,903.99 L205.55,903.25 L203.59,902.50 L201.66,901.74 L199.76,900.96 L197.89,900.17 L196.04,899.37 L194.22,898.55 L192.42,897.71 L190.65,896.87 L188.90,896.00 L187.17,895.12 L185.47,894.23 L183.79,893.32 L182.14,892.40 L180.50,891.46 L178.89,890.51 L177.30,889.54 L175.73,888.56 L174.19,887.56 L172.66,886.55 L171.15,885.52 L169.67,884.48 L168.20,883.42 L166.76,882.34 L165.33,881.25 L163.92,880.14 L162.54,879.01 L161.17,877.87 L159.82,876.71 L158.48,875.54 L157.17,874.34 L155.87,873.14 L154.59,871.91 L153.33,870.67 L152.09,869.41 L150.86,868.13 L149.66,866.83 L148.46,865.52 L147.29,864.18 L146.13,862.83 L144.99,861.46 L143.86,860.08 L142.75,858.67 L141.66,857.24 L140.58,855.80 L139.52,854.33 L138.48,852.85 L137.45,851.34 L136.44,849.81 L135.44,848.27 L134.46,846.70 L133.49,845.11 L132.54,843.50 L131.60,841.86 L130.68,840.21 L129.77,838.53 L128.88,836.83 L128.00,835.10 L127.13,833.35 L126.29,831.58 L125.45,829.78 L124.63,827.96 L123.83,826.11 L123.04,824.24 L122.26,822.34 L121.50,820.41 L120.75,818.45 L120.01,816.47 L119.29,814.45 L118.59,812.41 L117.89,810.34 L117.21,808.23 L116.55,806.10 L115.90,803.93 L115.26,801.73 L114.64,799.49 L114.02,797.22 L113.43,794.91 L112.84,792.56 L112.27,790.18 L111.72,787.76 L111.17,785.29 L110.64,782.79 L110.12,780.24 L109.62,777.64 L109.13,775.00 L108.65,772.31 L108.19,769.57 L107.74,766.77 L107.30,763.93 L106.87,761.02 L106.46,758.06 L106.06,755.03 L105.67,751.94 L105.30,748.78 L104.94,745.54 L104.59,742.23 L104.26,738.85 L103.93,735.37 L103.63,731.81 L103.33,728.15 L103.04,724.39 L102.77,720.52 L102.52,716.53 L102.27,712.42 L102.04,708.17 L101.82,703.77 L101.61,699.21 L101.41,694.46 L101.23,689.52 L101.06,684.36 L100.90,678.95 L100.76,673.26 L100.63,667.24 L100.51,660.85 L100.40,654.01 L100.31,646.64 L100.23,638.60 L100.16,629.70 L100.10,619.65 L100.06,607.95 L100.03,593.59 L100.01,573.83 L100.00,512.00 L100.01,450.17 L100.03,430.41 L100.06,416.05 L100.10,404.35 L100.16,394.30 L100.23,385.40 L100.31,377.36 L100.40,369.99 L100.51,363.15 L100.63,356.76 L100.76,350.74 L100.90,345.05 L101.06,339.64 L101.23,334.48 L101.41,329.54 L101.61,324.79 L101.82,320.23 L102.04,315.83 L102.27,311.58 L102.52,307.47 L102.77,303.48 L103.04,299.61 L103.33,295.85 L103.63,292.19 L103.93,288.63 L104.26,285.15 L104.59,281.77 L104.94,278.46 L105.30,275.22 L105.67,272.06 L106.06,268.97 L106.46,265.94 L106.87,262.98 L107.30,260.07 L107.74,257.23 L108.19,254.43 L108.65,251.69 L109.13,249.00 L109.62,246.36 L110.12,243.76 L110.64,241.21 L111.17,238.71 L111.72,236.24 L112.27,233.82 L112.84,231.44 L113.43,229.09 L114.02,226.78 L114.64,224.51 L115.26,222.27 L115.90,220.07 L116.55,217.90 L117.21,215.77 L117.89,213.66 L118.59,211.59 L119.29,209.55 L120.01,207.53 L120.75,205.55 L121.50,203.59 L122.26,201.66 L123.04,199.76 L123.83,197.89 L124.63,196.04 L125.45,194.22 L126.29,192.42 L127.13,190.65 L128.00,188.90 L128.88,187.17 L129.77,185.47 L130.68,183.79 L131.60,182.14 L132.54,180.50 L133.49,178.89 L134.46,177.30 L135.44,175.73 L136.44,174.19 L137.45,172.66 L138.48,171.15 L139.52,169.67 L140.58,168.20 L141.66,166.76 L142.75,165.33 L143.86,163.92 L144.99,162.54 L146.13,161.17 L147.29,159.82 L148.46,158.48 L149.66,157.17 L150.86,155.87 L152.09,154.59 L153.33,153.33 L154.59,152.09 L155.87,150.86 L157.17,149.66 L158.48,148.46 L159.82,147.29 L161.17,146.13 L162.54,144.99 L163.92,143.86 L165.33,142.75 L166.76,141.66 L168.20,140.58 L169.67,139.52 L171.15,138.48 L172.66,137.45 L174.19,136.44 L175.73,135.44 L177.30,134.46 L178.89,133.49 L180.50,132.54 L182.14,131.60 L183.79,130.68 L185.47,129.77 L187.17,128.88 L188.90,128.00 L190.65,127.13 L192.42,126.29 L194.22,125.45 L196.04,124.63 L197.89,123.83 L199.76,123.04 L201.66,122.26 L203.59,121.50 L205.55,120.75 L207.53,120.01 L209.55,119.29 L211.59,118.59 L213.66,117.89 L215.77,117.21 L217.90,116.55 L220.07,115.90 L222.27,115.26 L224.51,114.64 L226.78,114.02 L229.09,113.43 L231.44,112.84 L233.82,112.27 L236.24,111.72 L238.71,111.17 L241.21,110.64 L243.76,110.12 L246.36,109.62 L249.00,109.13 L251.69,108.65 L254.43,108.19 L257.23,107.74 L260.07,107.30 L262.98,106.87 L265.94,106.46 L268.97,106.06 L272.06,105.67 L275.22,105.30 L278.46,104.94 L281.77,104.59 L285.15,104.26 L288.63,103.93 L292.19,103.63 L295.85,103.33 L299.61,103.04 L303.48,102.77 L307.47,102.52 L311.58,102.27 L315.83,102.04 L320.23,101.82 L324.79,101.61 L329.54,101.41 L334.48,101.23 L339.64,101.06 L345.05,100.90 L350.74,100.76 L356.76,100.63 L363.15,100.51 L369.99,100.40 L377.36,100.31 L385.40,100.23 L394.30,100.16 L404.35,100.10 L416.05,100.06 L430.41,100.03 L450.17,100.01 L512.00,100.00 L573.83,100.01 L593.59,100.03 L607.95,100.06 L619.65,100.10 L629.70,100.16 L638.60,100.23 L646.64,100.31 L654.01,100.40 L660.85,100.51 L667.24,100.63 L673.26,100.76 L678.95,100.90 L684.36,101.06 L689.52,101.23 L694.46,101.41 L699.21,101.61 L703.77,101.82 L708.17,102.04 L712.42,102.27 L716.53,102.52 L720.52,102.77 L724.39,103.04 L728.15,103.33 L731.81,103.63 L735.37,103.93 L738.85,104.26 L742.23,104.59 L745.54,104.94 L748.78,105.30 L751.94,105.67 L755.03,106.06 L758.06,106.46 L761.02,106.87 L763.93,107.30 L766.77,107.74 L769.57,108.19 L772.31,108.65 L775.00,109.13 L777.64,109.62 L780.24,110.12 L782.79,110.64 L785.29,111.17 L787.76,111.72 L790.18,112.27 L792.56,112.84 L794.91,113.43 L797.22,114.02 L799.49,114.64 L801.73,115.26 L803.93,115.90 L806.10,116.55 L808.23,117.21 L810.34,117.89 L812.41,118.59 L814.45,119.29 L816.47,120.01 L818.45,120.75 L820.41,121.50 L822.34,122.26 L824.24,123.04 L826.11,123.83 L827.96,124.63 L829.78,125.45 L831.58,126.29 L833.35,127.13 L835.10,128.00 L836.83,128.88 L838.53,129.77 L840.21,130.68 L841.86,131.60 L843.50,132.54 L845.11,133.49 L846.70,134.46 L848.27,135.44 L849.81,136.44 L851.34,137.45 L852.85,138.48 L854.33,139.52 L855.80,140.58 L857.24,141.66 L858.67,142.75 L860.08,143.86 L861.46,144.99 L862.83,146.13 L864.18,147.29 L865.52,148.46 L866.83,149.66 L868.13,150.86 L869.41,152.09 L870.67,153.33 L871.91,154.59 L873.14,155.87 L874.34,157.17 L875.54,158.48 L876.71,159.82 L877.87,161.17 L879.01,162.54 L880.14,163.92 L881.25,165.33 L882.34,166.76 L883.42,168.20 L884.48,169.67 L885.52,171.15 L886.55,172.66 L887.56,174.19 L888.56,175.73 L889.54,177.30 L890.51,178.89 L891.46,180.50 L892.40,182.14 L893.32,183.79 L894.23,185.47 L895.12,187.17 L896.00,188.90 L896.87,190.65 L897.71,192.42 L898.55,194.22 L899.37,196.04 L900.17,197.89 L900.96,199.76 L901.74,201.66 L902.50,203.59 L903.25,205.55 L903.99,207.53 L904.71,209.55 L905.41,211.59 L906.11,213.66 L906.79,215.77 L907.45,217.90 L908.10,220.07 L908.74,222.27 L909.36,224.51 L909.98,226.78 L910.57,229.09 L911.16,231.44 L911.73,233.82 L912.28,236.24 L912.83,238.71 L913.36,241.21 L913.88,243.76 L914.38,246.36 L914.87,249.00 L915.35,251.69 L915.81,254.43 L916.26,257.23 L916.70,260.07 L917.13,262.98 L917.54,265.94 L917.94,268.97 L918.33,272.06 L918.70,275.22 L919.06,278.46 L919.41,281.77 L919.74,285.15 L920.07,288.63 L920.37,292.19 L920.67,295.85 L920.96,299.61 L921.23,303.48 L921.48,307.47 L921.73,311.58 L921.96,315.83 L922.18,320.23 L922.39,324.79 L922.59,329.54 L922.77,334.48 L922.94,339.64 L923.10,345.05 L923.24,350.74 L923.37,356.76 L923.49,363.15 L923.60,369.99 L923.69,377.36 L923.77,385.40 L923.84,394.30 L923.90,404.35 L923.94,416.05 L923.97,430.41 L923.99,450.17 Z"/></clipPath>
</defs>
<path d="M924.00,512.00 L923.99,573.83 L923.97,593.59 L923.94,607.95 L923.90,619.65 L923.84,629.70 L923.77,638.60 L923.69,646.64 L923.60,654.01 L923.49,660.85 L923.37,667.24 L923.24,673.26 L923.10,678.95 L922.94,684.36 L922.77,689.52 L922.59,694.46 L922.39,699.21 L922.18,703.77 L921.96,708.17 L921.73,712.42 L921.48,716.53 L921.23,720.52 L920.96,724.39 L920.67,728.15 L920.37,731.81 L920.07,735.37 L919.74,738.85 L919.41,742.23 L919.06,745.54 L918.70,748.78 L918.33,751.94 L917.94,755.03 L917.54,758.06 L917.13,761.02 L916.70,763.93 L916.26,766.77 L915.81,769.57 L915.35,772.31 L914.87,775.00 L914.38,777.64 L913.88,780.24 L913.36,782.79 L912.83,785.29 L912.28,787.76 L911.73,790.18 L911.16,792.56 L910.57,794.91 L909.98,797.22 L909.36,799.49 L908.74,801.73 L908.10,803.93 L907.45,806.10 L906.79,808.23 L906.11,810.34 L905.41,812.41 L904.71,814.45 L903.99,816.47 L903.25,818.45 L902.50,820.41 L901.74,822.34 L900.96,824.24 L900.17,826.11 L899.37,827.96 L898.55,829.78 L897.71,831.58 L896.87,833.35 L896.00,835.10 L895.12,836.83 L894.23,838.53 L893.32,840.21 L892.40,841.86 L891.46,843.50 L890.51,845.11 L889.54,846.70 L888.56,848.27 L887.56,849.81 L886.55,851.34 L885.52,852.85 L884.48,854.33 L883.42,855.80 L882.34,857.24 L881.25,858.67 L880.14,860.08 L879.01,861.46 L877.87,862.83 L876.71,864.18 L875.54,865.52 L874.34,866.83 L873.14,868.13 L871.91,869.41 L870.67,870.67 L869.41,871.91 L868.13,873.14 L866.83,874.34 L865.52,875.54 L864.18,876.71 L862.83,877.87 L861.46,879.01 L860.08,880.14 L858.67,881.25 L857.24,882.34 L855.80,883.42 L854.33,884.48 L852.85,885.52 L851.34,886.55 L849.81,887.56 L848.27,888.56 L846.70,889.54 L845.11,890.51 L843.50,891.46 L841.86,892.40 L840.21,893.32 L838.53,894.23 L836.83,895.12 L835.10,896.00 L833.35,896.87 L831.58,897.71 L829.78,898.55 L827.96,899.37 L826.11,900.17 L824.24,900.96 L822.34,901.74 L820.41,902.50 L818.45,903.25 L816.47,903.99 L814.45,904.71 L812.41,905.41 L810.34,906.11 L808.23,906.79 L806.10,907.45 L803.93,908.10 L801.73,908.74 L799.49,909.36 L797.22,909.98 L794.91,910.57 L792.56,911.16 L790.18,911.73 L787.76,912.28 L785.29,912.83 L782.79,913.36 L780.24,913.88 L777.64,914.38 L775.00,914.87 L772.31,915.35 L769.57,915.81 L766.77,916.26 L763.93,916.70 L761.02,917.13 L758.06,917.54 L755.03,917.94 L751.94,918.33 L748.78,918.70 L745.54,919.06 L742.23,919.41 L738.85,919.74 L735.37,920.07 L731.81,920.37 L728.15,920.67 L724.39,920.96 L720.52,921.23 L716.53,921.48 L712.42,921.73 L708.17,921.96 L703.77,922.18 L699.21,922.39 L694.46,922.59 L689.52,922.77 L684.36,922.94 L678.95,923.10 L673.26,923.24 L667.24,923.37 L660.85,923.49 L654.01,923.60 L646.64,923.69 L638.60,923.77 L629.70,923.84 L619.65,923.90 L607.95,923.94 L593.59,923.97 L573.83,923.99 L512.00,924.00 L450.17,923.99 L430.41,923.97 L416.05,923.94 L404.35,923.90 L394.30,923.84 L385.40,923.77 L377.36,923.69 L369.99,923.60 L363.15,923.49 L356.76,923.37 L350.74,923.24 L345.05,923.10 L339.64,922.94 L334.48,922.77 L329.54,922.59 L324.79,922.39 L320.23,922.18 L315.83,921.96 L311.58,921.73 L307.47,921.48 L303.48,921.23 L299.61,920.96 L295.85,920.67 L292.19,920.37 L288.63,920.07 L285.15,919.74 L281.77,919.41 L278.46,919.06 L275.22,918.70 L272.06,918.33 L268.97,917.94 L265.94,917.54 L262.98,917.13 L260.07,916.70 L257.23,916.26 L254.43,915.81 L251.69,915.35 L249.00,914.87 L246.36,914.38 L243.76,913.88 L241.21,913.36 L238.71,912.83 L236.24,912.28 L233.82,911.73 L231.44,911.16 L229.09,910.57 L226.78,909.98 L224.51,909.36 L222.27,908.74 L220.07,908.10 L217.90,907.45 L215.77,906.79 L213.66,906.11 L211.59,905.41 L209.55,904.71 L207.53,903.99 L205.55,903.25 L203.59,902.50 L201.66,901.74 L199.76,900.96 L197.89,900.17 L196.04,899.37 L194.22,898.55 L192.42,897.71 L190.65,896.87 L188.90,896.00 L187.17,895.12 L185.47,894.23 L183.79,893.32 L182.14,892.40 L180.50,891.46 L178.89,890.51 L177.30,889.54 L175.73,888.56 L174.19,887.56 L172.66,886.55 L171.15,885.52 L169.67,884.48 L168.20,883.42 L166.76,882.34 L165.33,881.25 L163.92,880.14 L162.54,879.01 L161.17,877.87 L159.82,876.71 L158.48,875.54 L157.17,874.34 L155.87,873.14 L154.59,871.91 L153.33,870.67 L152.09,869.41 L150.86,868.13 L149.66,866.83 L148.46,865.52 L147.29,864.18 L146.13,862.83 L144.99,861.46 L143.86,860.08 L142.75,858.67 L141.66,857.24 L140.58,855.80 L139.52,854.33 L138.48,852.85 L137.45,851.34 L136.44,849.81 L135.44,848.27 L134.46,846.70 L133.49,845.11 L132.54,843.50 L131.60,841.86 L130.68,840.21 L129.77,838.53 L128.88,836.83 L128.00,835.10 L127.13,833.35 L126.29,831.58 L125.45,829.78 L124.63,827.96 L123.83,826.11 L123.04,824.24 L122.26,822.34 L121.50,820.41 L120.75,818.45 L120.01,816.47 L119.29,814.45 L118.59,812.41 L117.89,810.34 L117.21,808.23 L116.55,806.10 L115.90,803.93 L115.26,801.73 L114.64,799.49 L114.02,797.22 L113.43,794.91 L112.84,792.56 L112.27,790.18 L111.72,787.76 L111.17,785.29 L110.64,782.79 L110.12,780.24 L109.62,777.64 L109.13,775.00 L108.65,772.31 L108.19,769.57 L107.74,766.77 L107.30,763.93 L106.87,761.02 L106.46,758.06 L106.06,755.03 L105.67,751.94 L105.30,748.78 L104.94,745.54 L104.59,742.23 L104.26,738.85 L103.93,735.37 L103.63,731.81 L103.33,728.15 L103.04,724.39 L102.77,720.52 L102.52,716.53 L102.27,712.42 L102.04,708.17 L101.82,703.77 L101.61,699.21 L101.41,694.46 L101.23,689.52 L101.06,684.36 L100.90,678.95 L100.76,673.26 L100.63,667.24 L100.51,660.85 L100.40,654.01 L100.31,646.64 L100.23,638.60 L100.16,629.70 L100.10,619.65 L100.06,607.95 L100.03,593.59 L100.01,573.83 L100.00,512.00 L100.01,450.17 L100.03,430.41 L100.06,416.05 L100.10,404.35 L100.16,394.30 L100.23,385.40 L100.31,377.36 L100.40,369.99 L100.51,363.15 L100.63,356.76 L100.76,350.74 L100.90,345.05 L101.06,339.64 L101.23,334.48 L101.41,329.54 L101.61,324.79 L101.82,320.23 L102.04,315.83 L102.27,311.58 L102.52,307.47 L102.77,303.48 L103.04,299.61 L103.33,295.85 L103.63,292.19 L103.93,288.63 L104.26,285.15 L104.59,281.77 L104.94,278.46 L105.30,275.22 L105.67,272.06 L106.06,268.97 L106.46,265.94 L106.87,262.98 L107.30,260.07 L107.74,257.23 L108.19,254.43 L108.65,251.69 L109.13,249.00 L109.62,246.36 L110.12,243.76 L110.64,241.21 L111.17,238.71 L111.72,236.24 L112.27,233.82 L112.84,231.44 L113.43,229.09 L114.02,226.78 L114.64,224.51 L115.26,222.27 L115.90,220.07 L116.55,217.90 L117.21,215.77 L117.89,213.66 L118.59,211.59 L119.29,209.55 L120.01,207.53 L120.75,205.55 L121.50,203.59 L122.26,201.66 L123.04,199.76 L123.83,197.89 L124.63,196.04 L125.45,194.22 L126.29,192.42 L127.13,190.65 L128.00,188.90 L128.88,187.17 L129.77,185.47 L130.68,183.79 L131.60,182.14 L132.54,180.50 L133.49,178.89 L134.46,177.30 L135.44,175.73 L136.44,174.19 L137.45,172.66 L138.48,171.15 L139.52,169.67 L140.58,168.20 L141.66,166.76 L142.75,165.33 L143.86,163.92 L144.99,162.54 L146.13,161.17 L147.29,159.82 L148.46,158.48 L149.66,157.17 L150.86,155.87 L152.09,154.59 L153.33,153.33 L154.59,152.09 L155.87,150.86 L157.17,149.66 L158.48,148.46 L159.82,147.29 L161.17,146.13 L162.54,144.99 L163.92,143.86 L165.33,142.75 L166.76,141.66 L168.20,140.58 L169.67,139.52 L171.15,138.48 L172.66,137.45 L174.19,136.44 L175.73,135.44 L177.30,134.46 L178.89,133.49 L180.50,132.54 L182.14,131.60 L183.79,130.68 L185.47,129.77 L187.17,128.88 L188.90,128.00 L190.65,127.13 L192.42,126.29 L194.22,125.45 L196.04,124.63 L197.89,123.83 L199.76,123.04 L201.66,122.26 L203.59,121.50 L205.55,120.75 L207.53,120.01 L209.55,119.29 L211.59,118.59 L213.66,117.89 L215.77,117.21 L217.90,116.55 L220.07,115.90 L222.27,115.26 L224.51,114.64 L226.78,114.02 L229.09,113.43 L231.44,112.84 L233.82,112.27 L236.24,111.72 L238.71,111.17 L241.21,110.64 L243.76,110.12 L246.36,109.62 L249.00,109.13 L251.69,108.65 L254.43,108.19 L257.23,107.74 L260.07,107.30 L262.98,106.87 L265.94,106.46 L268.97,106.06 L272.06,105.67 L275.22,105.30 L278.46,104.94 L281.77,104.59 L285.15,104.26 L288.63,103.93 L292.19,103.63 L295.85,103.33 L299.61,103.04 L303.48,102.77 L307.47,102.52 L311.58,102.27 L315.83,102.04 L320.23,101.82 L324.79,101.61 L329.54,101.41 L334.48,101.23 L339.64,101.06 L345.05,100.90 L350.74,100.76 L356.76,100.63 L363.15,100.51 L369.99,100.40 L377.36,100.31 L385.40,100.23 L394.30,100.16 L404.35,100.10 L416.05,100.06 L430.41,100.03 L450.17,100.01 L512.00,100.00 L573.83,100.01 L593.59,100.03 L607.95,100.06 L619.65,100.10 L629.70,100.16 L638.60,100.23 L646.64,100.31 L654.01,100.40 L660.85,100.51 L667.24,100.63 L673.26,100.76 L678.95,100.90 L684.36,101.06 L689.52,101.23 L694.46,101.41 L699.21,101.61 L703.77,101.82 L708.17,102.04 L712.42,102.27 L716.53,102.52 L720.52,102.77 L724.39,103.04 L728.15,103.33 L731.81,103.63 L735.37,103.93 L738.85,104.26 L742.23,104.59 L745.54,104.94 L748.78,105.30 L751.94,105.67 L755.03,106.06 L758.06,106.46 L761.02,106.87 L763.93,107.30 L766.77,107.74 L769.57,108.19 L772.31,108.65 L775.00,109.13 L777.64,109.62 L780.24,110.12 L782.79,110.64 L785.29,111.17 L787.76,111.72 L790.18,112.27 L792.56,112.84 L794.91,113.43 L797.22,114.02 L799.49,114.64 L801.73,115.26 L803.93,115.90 L806.10,116.55 L808.23,117.21 L810.34,117.89 L812.41,118.59 L814.45,119.29 L816.47,120.01 L818.45,120.75 L820.41,121.50 L822.34,122.26 L824.24,123.04 L826.11,123.83 L827.96,124.63 L829.78,125.45 L831.58,126.29 L833.35,127.13 L835.10,128.00 L836.83,128.88 L838.53,129.77 L840.21,130.68 L841.86,131.60 L843.50,132.54 L845.11,133.49 L846.70,134.46 L848.27,135.44 L849.81,136.44 L851.34,137.45 L852.85,138.48 L854.33,139.52 L855.80,140.58 L857.24,141.66 L858.67,142.75 L860.08,143.86 L861.46,144.99 L862.83,146.13 L864.18,147.29 L865.52,148.46 L866.83,149.66 L868.13,150.86 L869.41,152.09 L870.67,153.33 L871.91,154.59 L873.14,155.87 L874.34,157.17 L875.54,158.48 L876.71,159.82 L877.87,161.17 L879.01,162.54 L880.14,163.92 L881.25,165.33 L882.34,166.76 L883.42,168.20 L884.48,169.67 L885.52,171.15 L886.55,172.66 L887.56,174.19 L888.56,175.73 L889.54,177.30 L890.51,178.89 L891.46,180.50 L892.40,182.14 L893.32,183.79 L894.23,185.47 L895.12,187.17 L896.00,188.90 L896.87,190.65 L897.71,192.42 L898.55,194.22 L899.37,196.04 L900.17,197.89 L900.96,199.76 L901.74,201.66 L902.50,203.59 L903.25,205.55 L903.99,207.53 L904.71,209.55 L905.41,211.59 L906.11,213.66 L906.79,215.77 L907.45,217.90 L908.10,220.07 L908.74,222.27 L909.36,224.51 L909.98,226.78 L910.57,229.09 L911.16,231.44 L911.73,233.82 L912.28,236.24 L912.83,238.71 L913.36,241.21 L913.88,243.76 L914.38,246.36 L914.87,249.00 L915.35,251.69 L915.81,254.43 L916.26,257.23 L916.70,260.07 L917.13,262.98 L917.54,265.94 L917.94,268.97 L918.33,272.06 L918.70,275.22 L919.06,278.46 L919.41,281.77 L919.74,285.15 L920.07,288.63 L920.37,292.19 L920.67,295.85 L920.96,299.61 L921.23,303.48 L921.48,307.47 L921.73,311.58 L921.96,315.83 L922.18,320.23 L922.39,324.79 L922.59,329.54 L922.77,334.48 L922.94,339.64 L923.10,345.05 L923.24,350.74 L923.37,356.76 L923.49,363.15 L923.60,369.99 L923.69,377.36 L923.77,385.40 L923.84,394.30 L923.90,404.35 L923.94,416.05 L923.97,430.41 L923.99,450.17 Z" fill="url(#bg)"/>
<g clip-path="url(#clip)"><path d="M220.00,512.00 L220.31,509.10 L220.62,506.21 L220.93,503.33 L221.24,500.47 L221.54,497.63 L221.85,494.80 L222.16,491.98 L222.47,489.18 L222.78,486.40 L223.09,483.64 L223.40,480.89 L223.71,478.17 L224.02,475.46 L224.33,472.78 L224.63,470.12 L224.94,467.47 L225.25,464.85 L225.56,462.26 L225.87,459.68 L226.18,457.13 L226.49,454.61 L226.80,452.11 L227.11,449.63 L227.41,447.18 L227.72,444.76 L228.03,442.36 L228.34,439.99 L228.65,437.65 L228.96,435.34 L229.27,433.06 L229.58,430.80 L229.89,428.58 L230.20,426.39 L230.50,424.22 L230.81,422.09 L231.12,419.99 L231.43,417.92 L231.74,415.88 L232.05,413.88 L232.36,411.91 L232.67,409.97 L232.98,408.06 L233.28,406.19 L233.59,404.36 L233.90,402.55 L234.21,400.79 L234.52,399.06 L234.83,397.36 L235.14,395.70 L235.45,394.08 L235.76,392.49 L236.07,390.94 L236.37,389.42 L236.68,387.95 L236.99,386.51 L237.30,385.10 L237.61,383.74 L237.92,382.41 L238.23,381.12 L238.54,379.87 L238.85,378.66 L239.15,377.49 L239.46,376.35 L239.77,375.25 L240.08,374.20 L240.39,373.18 L240.70,372.20 L241.01,371.26 L241.32,370.36 L241.63,369.49 L241.93,368.67 L242.24,367.89 L242.55,367.15 L242.86,366.44 L243.17,365.78 L243.48,365.15 L243.79,364.56 L244.10,364.02 L244.41,363.51 L244.72,363.04 L245.02,362.61 L245.33,362.23 L245.64,361.88 L245.95,361.56 L246.26,361.29 L246.57,361.06 L246.88,360.87 L247.19,360.71 L247.50,360.59 L247.80,360.51 L248.11,360.47 L248.42,360.47 L248.73,360.51 L249.04,360.58 L249.35,360.69 L249.66,360.84 L249.97,361.03 L250.28,361.25 L250.59,361.51 L250.89,361.81 L251.20,362.15 L251.51,362.51 L251.82,362.92 L252.13,363.36 L252.44,363.84 L252.75,364.35 L253.06,364.90 L253.37,365.48 L253.67,366.10 L253.98,366.75 L254.29,367.43 L254.60,368.15 L254.91,368.90 L255.22,369.68 L255.53,370.50 L255.84,371.34 L256.15,372.22 L256.46,373.13 L256.76,374.08 L257.07,375.05 L257.38,376.05 L257.69,377.08 L258.00,378.15 L258.31,379.24 L258.62,380.36 L258.93,381.51 L259.24,382.68 L259.54,383.89 L259.85,385.12 L260.16,386.38 L260.47,387.66 L260.78,388.97 L261.09,390.31 L261.40,391.67 L261.71,393.05 L262.02,394.46 L262.33,395.89 L262.63,397.35 L262.94,398.83 L263.25,400.33 L263.56,401.85 L263.87,403.39 L264.18,404.96 L264.49,406.54 L264.80,408.15 L265.11,409.77 L265.41,411.42 L265.72,413.08 L266.03,414.76 L266.34,416.45 L266.65,418.17 L266.96,419.90 L267.27,421.64 L267.58,423.41 L267.89,425.18 L268.20,426.97 L268.50,428.78 L268.81,430.59 L269.12,432.43 L269.43,434.27 L269.74,436.12 L270.05,437.99 L270.36,439.87 L270.67,441.76 L270.98,443.65 L271.28,445.56 L271.59,447.47 L271.90,449.40 L272.21,451.33 L272.52,453.27 L272.83,455.21 L273.14,457.16 L273.45,459.12 L273.76,461.08 L274.07,463.05 L274.37,465.02 L274.68,466.99 L274.99,468.97 L275.30,470.95 L275.61,472.93 L275.92,474.92 L276.23,476.90 L276.54,478.89 L276.85,480.87 L277.15,482.85 L277.46,484.84 L277.77,486.82 L278.08,488.80 L278.39,490.78 L278.70,492.75 L279.01,494.73 L279.32,496.69 L279.63,498.66 L279.93,500.62 L280.24,502.57 L280.55,504.52 L280.86,506.46 L281.17,508.39 L281.48,510.32 L281.79,512.24 L282.10,514.15 L282.41,516.05 L282.72,517.95 L283.02,519.83 L283.33,521.71 L283.64,523.57 L283.95,525.43 L284.26,527.27 L284.57,529.10 L284.88,530.92 L285.19,532.73 L285.50,534.53 L285.80,536.31 L286.11,538.08 L286.42,539.83 L286.73,541.57 L287.04,543.30 L287.35,545.01 L287.66,546.70 L287.97,548.38 L288.28,550.04 L288.59,551.69 L288.89,553.32 L289.20,554.93 L289.51,556.53 L289.82,558.10 L290.13,559.66 L290.44,561.20 L290.75,562.73 L291.06,564.23 L291.37,565.71 L291.67,567.18 L291.98,568.62 L292.29,570.04 L292.60,571.45 L292.91,572.83 L293.22,574.19 L293.53,575.53 L293.84,576.85 L294.15,578.15 L294.46,579.42 L294.76,580.68 L295.07,581.91 L295.38,583.11 L295.69,584.30 L296.00,585.46 L296.31,586.60 L296.62,587.71 L296.93,588.80 L297.24,589.87 L297.54,590.92 L297.85,591.94 L298.16,592.93 L298.47,593.90 L298.78,594.85 L299.09,595.77 L299.40,596.67 L299.71,597.54 L300.02,598.38 L300.33,599.21 L300.63,600.00 L300.94,600.77 L301.25,601.52 L301.56,602.24 L301.87,602.93 L302.18,603.60 L302.49,604.24 L302.80,604.86 L303.11,605.45 L303.41,606.01 L303.72,606.55 L304.03,607.07 L304.34,607.55 L304.65,608.01 L304.96,608.45 L305.27,608.86 L305.58,609.24 L305.89,609.60 L306.20,609.93 L306.50,610.24 L306.81,610.51 L307.12,610.77 L307.43,611.00 L307.74,611.20 L308.05,611.37 L308.36,611.52 L308.67,611.65 L308.98,611.75 L309.28,611.82 L309.59,611.87 L309.90,611.89 L310.21,611.89 L310.52,611.86 L310.83,611.81 L311.14,611.74 L311.45,611.63 L311.76,611.51 L312.07,611.36 L312.37,611.18 L312.68,610.98 L312.99,610.76 L313.30,610.51 L313.61,610.24 L313.92,609.95 L314.23,609.63 L314.54,609.29 L314.85,608.93 L315.15,608.54 L315.46,608.13 L315.77,607.70 L316.08,607.25 L316.39,606.77 L316.70,606.28 L317.01,605.76 L317.32,605.22 L317.63,604.66 L317.93,604.07 L318.24,603.47 L318.55,602.85 L318.86,602.20 L319.17,601.54 L319.48,600.86 L319.79,600.15 L320.10,599.43 L320.41,598.69 L320.72,597.93 L321.02,597.15 L321.33,596.36 L321.64,595.54 L321.95,594.71 L322.26,593.86 L322.57,593.00 L322.88,592.11 L323.19,591.22 L323.50,590.30 L323.80,589.37 L324.11,588.42 L324.42,587.46 L324.73,586.49 L325.04,585.49 L325.35,584.49 L325.66,583.47 L325.97,582.44 L326.28,581.39 L326.59,580.33 L326.89,579.26 L327.20,578.17 L327.51,577.08 L327.82,575.97 L328.13,574.85 L328.44,573.72 L328.75,572.57 L329.06,571.42 L329.37,570.26 L329.67,569.09 L329.98,567.91 L330.29,566.71 L330.60,565.52 L330.91,564.31 L331.22,563.09 L331.53,561.87 L331.84,560.64 L332.15,559.40 L332.46,558.15 L332.76,556.90 L333.07,555.64 L333.38,554.38 L333.69,553.11 L334.00,551.84 L334.31,550.56 L334.62,549.28 L334.93,547.99 L335.24,546.70 L335.54,545.41 L335.85,544.11 L336.16,542.81 L336.47,541.51 L336.78,540.20 L337.09,538.90 L337.40,537.59 L337.71,536.28 L338.02,534.98 L338.33,533.67 L338.63,532.36 L338.94,531.05 L339.25,529.74 L339.56,528.44 L339.87,527.13 L340.18,525.83 L340.49,524.53 L340.80,523.23 L341.11,521.93 L341.41,520.63 L341.72,519.34 L342.03,518.06 L342.34,516.77 L342.65,515.49 L342.96,514.22 L343.27,512.95 L343.58,511.68 L343.89,510.42 L344.20,509.17 L344.50,507.92 L344.81,506.68 L345.12,505.45 L345.43,504.22 L345.74,502.99 L346.05,501.78 L346.36,500.57 L346.67,499.38 L346.98,498.18 L347.28,497.00 L347.59,495.83 L347.90,494.66 L348.21,493.51 L348.52,492.36 L348.83,491.23 L349.14,490.10 L349.45,488.99 L349.76,487.88 L350.07,486.78 L350.37,485.70 L350.68,484.63 L350.99,483.57 L351.30,482.52 L351.61,481.48 L351.92,480.45 L352.23,479.44 L352.54,478.43 L352.85,477.45 L353.15,476.47 L353.46,475.51 L353.77,474.56 L354.08,473.62 L354.39,472.70 L354.70,471.79 L355.01,470.89 L355.32,470.01 L355.63,469.14 L355.93,468.29 L356.24,467.45 L356.55,466.62 L356.86,465.82 L357.17,465.02 L357.48,464.24 L357.79,463.48 L358.10,462.73 L358.41,462.00 L358.72,461.28 L359.02,460.58 L359.33,459.89 L359.64,459.22 L359.95,458.57 L360.26,457.93 L360.57,457.31 L360.88,456.70 L361.19,456.11 L361.50,455.54 L361.80,454.98 L362.11,454.44 L362.42,453.92 L362.73,453.42 L363.04,452.93 L363.35,452.45 L363.66,452.00 L363.97,451.56 L364.28,451.14 L364.59,450.73 L364.89,450.35 L365.20,449.98 L365.51,449.62 L365.82,449.29 L366.13,448.97 L366.44,448.67 L366.75,448.38 L367.06,448.11 L367.37,447.86 L367.67,447.63 L367.98,447.41 L368.29,447.22 L368.60,447.03 L368.91,446.87 L369.22,446.72 L369.53,446.59 L369.84,446.48 L370.15,446.38 L370.46,446.30 L370.76,446.24 L371.07,446.19 L371.38,446.16 L371.69,446.15 L372.00,446.15 L372.31,446.17 L372.62,446.20 L372.93,446.26 L373.24,446.33 L373.54,446.41 L373.85,446.51 L374.16,446.63 L374.47,446.76 L374.78,446.91 L375.09,447.08 L375.40,447.26 L375.71,447.45 L376.02,447.66 L376.33,447.89 L376.63,448.13 L376.94,448.39 L377.25,448.66 L377.56,448.95 L377.87,449.25 L378.18,449.56 L378.49,449.89 L378.80,450.24 L379.11,450.59 L379.41,450.97 L379.72,451.35 L380.03,451.75 L380.34,452.16 L380.65,452.59 L380.96,453.03 L381.27,453.48 L381.58,453.94 L381.89,454.42 L382.20,454.91 L382.50,455.41 L382.81,455.93 L383.12,456.45 L383.43,456.99 L383.74,457.54 L384.05,458.10 L384.36,458.68 L384.67,459.26 L384.98,459.85 L385.28,460.46 L385.59,461.07 L385.90,461.70 L386.21,462.33 L386.52,462.98 L386.83,463.63 L387.14,464.30 L387.45,464.97 L387.76,465.65 L388.07,466.34 L388.37,467.04 L388.68,467.75 L388.99,468.47 L389.30,469.19 L389.61,469.92 L389.92,470.66 L390.23,471.41 L390.54,472.16 L390.85,472.92 L391.15,473.69 L391.46,474.46 L391.77,475.24 L392.08,476.03 L392.39,476.82 L392.70,477.62 L393.01,478.42 L393.32,479.23 L393.63,480.04 L393.93,480.86 L394.24,481.68 L394.55,482.50 L394.86,483.33 L395.17,484.17 L395.48,485.00 L395.79,485.84 L396.10,486.69 L396.41,487.53 L396.72,488.38 L397.02,489.23 L397.33,490.08 L397.64,490.94 L397.95,491.80 L398.26,492.65 L398.57,493.51 L398.88,494.38 L399.19,495.24 L399.50,496.10 L399.80,496.96 L400.11,497.82 L400.42,498.69 L400.73,499.55 L401.04,500.41 L401.35,501.27 L401.66,502.13 L401.97,502.99 L402.28,503.85 L402.59,504.71 L402.89,505.56 L403.20,506.41 L403.51,507.26 L403.82,508.11 L404.13,508.96 L404.44,509.80 L404.75,510.64 L405.06,511.48 L405.37,512.31 L405.67,513.14 L405.98,513.97 L406.29,514.79 L406.60,515.61 L406.91,516.42 L407.22,517.23 L407.53,518.04 L407.84,518.84 L408.15,519.63 L408.46,520.42 L408.76,521.21 L409.07,521.98 L409.38,522.76 L409.69,523.52 L410.00,524.28 L410.31,525.04 L410.62,525.79 L410.93,526.53 L411.24,527.26 L411.54,527.99 L411.85,528.71 L412.16,529.43 L412.47,530.13 L412.78,530.83 L413.09,531.52 L413.40,532.21 L413.71,532.88 L414.02,533.55 L414.33,534.21 L414.63,534.86 L414.94,535.50 L415.25,536.14 L415.56,536.76 L415.87,537.38 L416.18,537.99 L416.49,538.59 L416.80,539.17 L417.11,539.75 L417.41,540.33 L417.72,540.89 L418.03,541.44 L418.34,541.98 L418.65,542.51 L418.96,543.04 L419.27,543.55 L419.58,544.05 L419.89,544.54 L420.20,545.02 L420.50,545.50 L420.81,545.96 L421.12,546.41 L421.43,546.85 L421.74,547.28 L422.05,547.70 L422.36,548.11 L422.67,548.50 L422.98,548.89 L423.28,549.27 L423.59,549.63 L423.90,549.99 L424.21,550.33 L424.52,550.66 L424.83,550.98 L425.14,551.29 L425.45,551.59 L425.76,551.88 L426.07,552.16 L426.37,552.42 L426.68,552.68 L426.99,552.92 L427.30,553.15 L427.61,553.37 L427.92,553.58 L428.23,553.78 L428.54,553.96 L428.85,554.14 L429.15,554.30 L429.46,554.45 L429.77,554.59 L430.08,554.72 L430.39,554.84 L430.70,554.95 L431.01,555.05 L431.32,555.13 L431.63,555.20 L431.93,555.27 L432.24,555.32 L432.55,555.36 L432.86,555.39 L433.17,555.41 L433.48,555.41 L433.79,555.41 L434.10,555.40 L434.41,555.37 L434.72,555.33 L435.02,555.29 L435.33,555.23 L435.64,555.16 L435.95,555.08 L436.26,555.00 L436.57,554.90 L436.88,554.79 L437.19,554.67 L437.50,554.54 L437.80,554.40 L438.11,554.24 L438.42,554.08 L438.73,553.91 L439.04,553.73 L439.35,553.54 L439.66,553.34 L439.97,553.14 L440.28,552.92 L440.59,552.69 L440.89,552.45 L441.20,552.21 L441.51,551.95 L441.82,551.69 L442.13,551.41 L442.44,551.13 L442.75,550.84 L443.06,550.54 L443.37,550.23 L443.67,549.92 L443.98,549.59 L444.29,549.26 L444.60,548.92 L444.91,548.57 L445.22,548.22 L445.53,547.85 L445.84,547.48 L446.15,547.11 L446.46,546.72 L446.76,546.33 L447.07,545.93 L447.38,545.52 L447.69,545.11 L448.00,544.69 L448.31,544.26 L448.62,543.83 L448.93,543.39 L449.24,542.95 L449.54,542.50 L449.85,542.04 L450.16,541.58 L450.47,541.11 L450.78,540.64 L451.09,540.16 L451.40,539.68 L451.71,539.19 L452.02,538.70 L452.33,538.20 L452.63,537.70 L452.94,537.19 L453.25,536.68 L453.56,536.17 L453.87,535.65 L454.18,535.13 L454.49,534.60 L454.80,534.07 L455.11,533.54 L455.41,533.00 L455.72,532.46 L456.03,531.92 L456.34,531.38 L456.65,530.83 L456.96,530.28 L457.27,529.73 L457.58,529.17 L457.89,528.62 L458.20,528.06 L458.50,527.50 L458.81,526.94 L459.12,526.38 L459.43,525.81 L459.74,525.25 L460.05,524.68 L460.36,524.12 L460.67,523.55 L460.98,522.98 L461.28,522.41 L461.59,521.84 L461.90,521.27 L462.21,520.71 L462.52,520.14 L462.83,519.57 L463.14,519.00 L463.45,518.43 L463.76,517.87 L464.07,517.30 L464.37,516.74 L464.68,516.17 L464.99,515.61 L465.30,515.05 L465.61,514.49 L465.92,513.94 L466.23,513.38 L466.54,512.83 L466.85,512.27 L467.15,511.73 L467.46,511.18 L467.77,510.63 L468.08,510.09 L468.39,509.55 L468.70,509.02 L469.01,508.48 L469.32,507.95 L469.63,507.43 L469.93,506.90 L470.24,506.38 L470.55,505.87 L470.86,505.35 L471.17,504.85 L471.48,504.34 L471.79,503.84 L472.10,503.34 L472.41,502.85 L472.72,502.36 L473.02,501.88 L473.33,501.40 L473.64,500.92 L473.95,500.45 L474.26,499.99 L474.57,499.53 L474.88,499.07 L475.19,498.62 L475.50,498.18 L475.80,497.74 L476.11,497.30 L476.42,496.88 L476.73,496.45 L477.04,496.04 L477.35,495.62 L477.66,495.22 L477.97,494.82 L478.28,494.42 L478.59,494.04 L478.89,493.66 L479.20,493.28 L479.51,492.91 L479.82,492.55 L480.13,492.19 L480.44,491.84 L480.75,491.50 L481.06,491.16 L481.37,490.83 L481.67,490.51 L481.98,490.19 L482.29,489.88 L482.60,489.58 L482.91,489.28 L483.22,488.99 L483.53,488.71 L483.84,488.43 L484.15,488.16 L484.46,487.90 L484.76,487.65 L485.07,487.40 L485.38,487.16 L485.69,486.93 L486.00,486.70 L486.31,486.49 L486.62,486.27 L486.93,486.07 L487.24,485.88 L487.54,485.69 L487.85,485.51 L488.16,485.33 L488.47,485.16 L488.78,485.01 L489.09,484.85 L489.40,484.71 L489.71,484.57 L490.02,484.44 L490.33,484.32 L490.63,484.21 L490.94,484.10 L491.25,484.00 L491.56,483.91 L491.87,483.82 L492.18,483.75 L492.49,483.68 L492.80,483.61 L493.11,483.56 L493.41,483.51 L493.72,483.47 L494.03,483.44 L494.34,483.41 L494.65,483.39 L494.96,483.38 L495.27,483.38 L495.58,483.38 L495.89,483.39 L496.20,483.41 L496.50,483.44 L496.81,483.47 L497.12,483.51 L497.43,483.55 L497.74,483.60 L498.05,483.66 L498.36,483.73 L498.67,483.80 L498.98,483.88 L499.28,483.97 L499.59,484.06 L499.90,484.16 L500.21,484.27 L500.52,484.38 L500.83,484.50 L501.14,484.63 L501.45,484.76 L501.76,484.90 L502.07,485.04 L502.37,485.20 L502.68,485.35 L502.99,485.52 L503.30,485.68 L503.61,485.86 L503.92,486.04 L504.23,486.23 L504.54,486.42 L504.85,486.62 L505.15,486.82 L505.46,487.03 L505.77,487.24 L506.08,487.46 L506.39,487.69 L506.70,487.92 L507.01,488.15 L507.32,488.39 L507.63,488.64 L507.93,488.89 L508.24,489.14 L508.55,489.40 L508.86,489.67 L509.17,489.93 L509.48,490.21 L509.79,490.48 L510.10,490.77 L510.41,491.05 L510.72,491.34 L511.02,491.63 L511.33,491.93 L511.64,492.23 L511.95,492.54 L512.26,492.85 L512.57,493.16 L512.88,493.47 L513.19,493.79 L513.50,494.12 L513.80,494.44 L514.11,494.77 L514.42,495.10 L514.73,495.43 L515.04,495.77 L515.35,496.11 L515.66,496.45 L515.97,496.80 L516.28,497.14 L516.59,497.49 L516.89,497.84 L517.20,498.20 L517.51,498.55 L517.82,498.91 L518.13,499.27 L518.44,499.63 L518.75,499.99 L519.06,500.36 L519.37,500.72 L519.67,501.09 L519.98,501.46 L520.29,501.83 L520.60,502.20 L520.91,502.57 L521.22,502.94 L521.53,503.31 L521.84,503.69 L522.15,504.06 L522.46,504.43 L522.76,504.81 L523.07,505.18 L523.38,505.56 L523.69,505.93 L524.00,506.31 L524.31,506.68 L524.62,507.06 L524.93,507.43 L525.24,507.81 L525.54,508.18 L525.85,508.55 L526.16,508.92 L526.47,509.29 L526.78,509.66 L527.09,510.03 L527.40,510.40 L527.71,510.77 L528.02,511.14 L528.33,511.50 L528.63,511.86 L528.94,512.23 L529.25,512.59 L529.56,512.94 L529.87,513.30 L530.18,513.66 L530.49,514.01 L530.80,514.36 L531.11,514.71 L531.41,515.06 L531.72,515.40 L532.03,515.75 L532.34,516.09 L532.65,516.42 L532.96,516.76 L533.27,517.09 L533.58,517.42 L533.89,517.75 L534.20,518.07 L534.50,518.39 L534.81,518.71 L535.12,519.03 L535.43,519.34 L535.74,519.65 L536.05,519.96 L536.36,520.26 L536.67,520.56 L536.98,520.86 L537.28,521.15 L537.59,521.44 L537.90,521.72 L538.21,522.01 L538.52,522.28 L538.83,522.56 L539.14,522.83 L539.45,523.10 L539.76,523.36 L540.07,523.62 L540.37,523.87 L540.68,524.12 L540.99,524.37 L541.30,524.61 L541.61,524.85 L541.92,525.09 L542.23,525.32 L542.54,525.54 L542.85,525.77 L543.15,525.98 L543.46,526.20 L543.77,526.40 L544.08,526.61 L544.39,526.81 L544.70,527.00 L545.01,527.19 L545.32,527.38 L545.63,527.56 L545.93,527.74 L546.24,527.91 L546.55,528.07 L546.86,528.24 L547.17,528.39 L547.48,528.55 L547.79,528.69 L548.10,528.84 L548.41,528.98 L548.72,529.11 L549.02,529.24 L549.33,529.36 L549.64,529.48 L549.95,529.60 L550.26,529.70 L550.57,529.81 L550.88,529.91 L551.19,530.00 L551.50,530.09 L551.80,530.18 L552.11,530.26 L552.42,530.33 L552.73,530.40 L553.04,530.47 L553.35,530.53 L553.66,530.58 L553.97,530.63 L554.28,530.68 L554.59,530.72 L554.89,530.75 L555.20,530.78 L555.51,530.81 L555.82,530.83 L556.13,530.85 L556.44,530.86 L556.75,530.87 L557.06,530.87 L557.37,530.87 L557.67,530.86 L557.98,530.85 L558.29,530.83 L558.60,530.81 L558.91,530.78 L559.22,530.75 L559.53,530.72 L559.84,530.68 L560.15,530.63 L560.46,530.58 L560.76,530.53 L561.07,530.47 L561.38,530.41 L561.69,530.34 L562.00,530.27 L562.31,530.20 L562.62,530.12 L562.93,530.03 L563.24,529.95 L563.54,529.85 L563.85,529.76 L564.16,529.66 L564.47,529.55 L564.78,529.45 L565.09,529.33 L565.40,529.22 L565.71,529.10 L566.02,528.97 L566.33,528.85 L566.63,528.72 L566.94,528.58 L567.25,528.44 L567.56,528.30 L567.87,528.16 L568.18,528.01 L568.49,527.86 L568.80,527.70 L569.11,527.54 L569.41,527.38 L569.72,527.22 L570.03,527.05 L570.34,526.88 L570.65,526.70 L570.96,526.52 L571.27,526.34 L571.58,526.16 L571.89,525.98 L572.20,525.79 L572.50,525.60 L572.81,525.40 L573.12,525.21 L573.43,525.01 L573.74,524.80 L574.05,524.60 L574.36,524.40 L574.67,524.19 L574.98,523.98 L575.28,523.76 L575.59,523.55 L575.90,523.33 L576.21,523.11 L576.52,522.89 L576.83,522.67 L577.14,522.45 L577.45,522.22 L577.76,521.99 L578.07,521.76 L578.37,521.53 L578.68,521.30 L578.99,521.07 L579.30,520.83 L579.61,520.60 L579.92,520.36 L580.23,520.12 L580.54,519.88 L580.85,519.64 L581.15,519.40 L581.46,519.16 L581.77,518.92 L582.08,518.68 L582.39,518.43 L582.70,518.19 L583.01,517.94 L583.32,517.70 L583.63,517.45 L583.93,517.20 L584.24,516.96 L584.55,516.71 L584.86,516.46 L585.17,516.22 L585.48,515.97 L585.79,515.72 L586.10,515.47 L586.41,515.23 L586.72,514.98 L587.02,514.73 L587.33,514.49 L587.64,514.24 L587.95,514.00 L588.26,513.75 L588.57,513.51 L588.88,513.27 L589.19,513.02 L589.50,512.78 L589.80,512.54 L590.11,512.30 L590.42,512.06 L590.73,511.82 L591.04,511.58 L591.35,511.35 L591.66,511.11 L591.97,510.88 L592.28,510.65 L592.59,510.41 L592.89,510.18 L593.20,509.96 L593.51,509.73 L593.82,509.50 L594.13,509.28 L594.44,509.06 L594.75,508.84 L595.06,508.62 L595.37,508.40 L595.67,508.18 L595.98,507.97 L596.29,507.76 L596.60,507.55 L596.91,507.34 L597.22,507.13 L597.53,506.93 L597.84,506.73 L598.15,506.53 L598.46,506.33 L598.76,506.14 L599.07,505.95 L599.38,505.75 L599.69,505.57 L600.00,505.38 L600.31,505.20 L600.62,505.02 L600.93,504.84 L601.24,504.66 L601.54,504.49 L601.85,504.32 L602.16,504.15 L602.47,503.99 L602.78,503.82 L603.09,503.66 L603.40,503.51 L603.71,503.35 L604.02,503.20 L604.33,503.05 L604.63,502.91 L604.94,502.76 L605.25,502.62 L605.56,502.49 L605.87,502.35 L606.18,502.22 L606.49,502.09 L606.80,501.97 L607.11,501.85 L607.41,501.73 L607.72,501.61 L608.03,501.50 L608.34,501.39 L608.65,501.28 L608.96,501.18 L609.27,501.08 L609.58,500.98 L609.89,500.89 L610.20,500.80 L610.50,500.71 L610.81,500.63 L611.12,500.54 L611.43,500.47 L611.74,500.39 L612.05,500.32 L612.36,500.25 L612.67,500.19 L612.98,500.12 L613.28,500.07 L613.59,500.01 L613.90,499.96 L614.21,499.91 L614.52,499.86 L614.83,499.82 L615.14,499.78 L615.45,499.75 L615.76,499.71 L616.07,499.68 L616.37,499.66 L616.68,499.63 L616.99,499.61 L617.30,499.60 L617.61,499.58 L617.92,499.57 L618.23,499.57 L618.54,499.56 L618.85,499.56 L619.15,499.56 L619.46,499.57 L619.77,499.58 L620.08,499.59 L620.39,499.60 L620.70,499.62 L621.01,499.64 L621.32,499.67 L621.63,499.69 L621.93,499.72 L622.24,499.75 L622.55,499.79 L622.86,499.83 L623.17,499.87 L623.48,499.91 L623.79,499.96 L624.10,500.01 L624.41,500.06 L624.72,500.12 L625.02,500.18 L625.33,500.24 L625.64,500.30 L625.95,500.37 L626.26,500.44 L626.57,500.51 L626.88,500.58 L627.19,500.66 L627.50,500.74 L627.80,500.82 L628.11,500.90 L628.42,500.99 L628.73,501.08 L629.04,501.17 L629.35,501.26 L629.66,501.36 L629.97,501.46 L630.28,501.56 L630.59,501.66 L630.89,501.77 L631.20,501.87 L631.51,501.98 L631.82,502.09 L632.13,502.21 L632.44,502.32 L632.75,502.44 L633.06,502.56 L633.37,502.68 L633.67,502.80 L633.98,502.93 L634.29,503.05 L634.60,503.18 L634.91,503.31 L635.22,503.44 L635.53,503.58 L635.84,503.71 L636.15,503.85 L636.46,503.98 L636.76,504.12 L637.07,504.26 L637.38,504.40 L637.69,504.55 L638.00,504.69 L638.31,504.84 L638.62,504.98 L638.93,505.13 L639.24,505.28 L639.54,505.43 L639.85,505.58 L640.16,505.73 L640.47,505.89 L640.78,506.04 L641.09,506.20 L641.40,506.35 L641.71,506.51 L642.02,506.66 L642.33,506.82 L642.63,506.98 L642.94,507.14 L643.25,507.30 L643.56,507.46 L643.87,507.62 L644.18,507.78 L644.49,507.94 L644.80,508.10 L645.11,508.27 L645.41,508.43 L645.72,508.59 L646.03,508.75 L646.34,508.92 L646.65,509.08 L646.96,509.24 L647.27,509.40 L647.58,509.57 L647.89,509.73 L648.20,509.89 L648.50,510.06 L648.81,510.22 L649.12,510.38 L649.43,510.54 L649.74,510.70 L650.05,510.86 L650.36,511.03 L650.67,511.19 L650.98,511.35 L651.28,511.51 L651.59,511.66 L651.90,511.82 L652.21,511.98 L652.52,512.14 L652.83,512.29 L653.14,512.45 L653.45,512.60 L653.76,512.76 L654.07,512.91 L654.37,513.06 L654.68,513.22 L654.99,513.37 L655.30,513.52 L655.61,513.66 L655.92,513.81 L656.23,513.96 L656.54,514.10 L656.85,514.25 L657.15,514.39 L657.46,514.53 L657.77,514.67 L658.08,514.81 L658.39,514.95 L658.70,515.09 L659.01,515.22 L659.32,515.36 L659.63,515.49 L659.93,515.62 L660.24,515.75 L660.55,515.88 L660.86,516.01 L661.17,516.13 L661.48,516.26 L661.79,516.38 L662.10,516.50 L662.41,516.62 L662.72,516.74 L663.02,516.85 L663.33,516.97 L663.64,517.08 L663.95,517.19 L664.26,517.30 L664.57,517.40 L664.88,517.51 L665.19,517.61 L665.50,517.71 L665.80,517.81 L666.11,517.91 L666.42,518.01 L666.73,518.10 L667.04,518.19 L667.35,518.28 L667.66,518.37 L667.97,518.46 L668.28,518.54 L668.59,518.62 L668.89,518.70 L669.20,518.78 L669.51,518.86 L669.82,518.93 L670.13,519.00 L670.44,519.07 L670.75,519.14 L671.06,519.21 L671.37,519.27 L671.67,519.33 L671.98,519.39 L672.29,519.45 L672.60,519.51 L672.91,519.56 L673.22,519.61 L673.53,519.66 L673.84,519.71 L674.15,519.75 L674.46,519.79 L674.76,519.83 L675.07,519.87 L675.38,519.91 L675.69,519.94 L676.00,519.97 L676.31,520.00 L676.62,520.03 L676.93,520.06 L677.24,520.08 L677.54,520.10 L677.85,520.12 L678.16,520.14 L678.47,520.15 L678.78,520.17 L679.09,520.18 L679.40,520.19 L679.71,520.19 L680.02,520.20 L680.33,520.20 L680.63,520.20 L680.94,520.20 L681.25,520.19 L681.56,520.19 L681.87,520.18 L682.18,520.17 L682.49,520.16 L682.80,520.15 L683.11,520.13 L683.41,520.11 L683.72,520.09 L684.03,520.07 L684.34,520.05 L684.65,520.02 L684.96,519.99 L685.27,519.96 L685.58,519.93 L685.89,519.90 L686.20,519.86 L686.50,519.83 L686.81,519.79 L687.12,519.75 L687.43,519.71 L687.74,519.66 L688.05,519.62 L688.36,519.57 L688.67,519.52 L688.98,519.47 L689.28,519.42 L689.59,519.36 L689.90,519.31 L690.21,519.25 L690.52,519.19 L690.83,519.13 L691.14,519.07 L691.45,519.01 L691.76,518.94 L692.07,518.87 L692.37,518.81 L692.68,518.74 L692.99,518.67 L693.30,518.59 L693.61,518.52 L693.92,518.45 L694.23,518.37 L694.54,518.29 L694.85,518.21 L695.15,518.13 L695.46,518.05 L695.77,517.97 L696.08,517.89 L696.39,517.80 L696.70,517.72 L697.01,517.63 L697.32,517.54 L697.63,517.45 L697.93,517.36 L698.24,517.27 L698.55,517.18 L698.86,517.09 L699.17,517.00 L699.48,516.90 L699.79,516.81 L700.10,516.71 L700.41,516.61 L700.72,516.52 L701.02,516.42 L701.33,516.32 L701.64,516.22 L701.95,516.12 L702.26,516.02 L702.57,515.92 L702.88,515.81 L703.19,515.71 L703.50,515.61 L703.80,515.50 L704.11,515.40 L704.42,515.30 L704.73,515.19 L705.04,515.09 L705.35,514.98 L705.66,514.87 L705.97,514.77 L706.28,514.66 L706.59,514.56 L706.89,514.45 L707.20,514.34 L707.51,514.23 L707.82,514.13 L708.13,514.02 L708.44,513.91 L708.75,513.81 L709.06,513.70 L709.37,513.59 L709.67,513.48 L709.98,513.38 L710.29,513.27 L710.60,513.16 L710.91,513.05 L711.22,512.95 L711.53,512.84 L711.84,512.74 L712.15,512.63 L712.46,512.52 L712.76,512.42 L713.07,512.31 L713.38,512.21 L713.69,512.10 L714.00,512.00" fill="none" stroke="#48f0c8" stroke-width="20" stroke-linecap="round" stroke-linejoin="round" filter="url(#glow)"/><rect x="768" y="340" width="36" height="344" rx="18" fill="#48f0c8" filter="url(#glow)"/><path d="M924.00,512.00 L923.99,573.83 L923.97,593.59 L923.94,607.95 L923.90,619.65 L923.84,629.70 L923.77,638.60 L923.69,646.64 L923.60,654.01 L923.49,660.85 L923.37,667.24 L923.24,673.26 L923.10,678.95 L922.94,684.36 L922.77,689.52 L922.59,694.46 L922.39,699.21 L922.18,703.77 L921.96,708.17 L921.73,712.42 L921.48,716.53 L921.23,720.52 L920.96,724.39 L920.67,728.15 L920.37,731.81 L920.07,735.37 L919.74,738.85 L919.41,742.23 L919.06,745.54 L918.70,748.78 L918.33,751.94 L917.94,755.03 L917.54,758.06 L917.13,761.02 L916.70,763.93 L916.26,766.77 L915.81,769.57 L915.35,772.31 L914.87,775.00 L914.38,777.64 L913.88,780.24 L913.36,782.79 L912.83,785.29 L912.28,787.76 L911.73,790.18 L911.16,792.56 L910.57,794.91 L909.98,797.22 L909.36,799.49 L908.74,801.73 L908.10,803.93 L907.45,806.10 L906.79,808.23 L906.11,810.34 L905.41,812.41 L904.71,814.45 L903.99,816.47 L903.25,818.45 L902.50,820.41 L901.74,822.34 L900.96,824.24 L900.17,826.11 L899.37,827.96 L898.55,829.78 L897.71,831.58 L896.87,833.35 L896.00,835.10 L895.12,836.83 L894.23,838.53 L893.32,840.21 L892.40,841.86 L891.46,843.50 L890.51,845.11 L889.54,846.70 L888.56,848.27 L887.56,849.81 L886.55,851.34 L885.52,852.85 L884.48,854.33 L883.42,855.80 L882.34,857.24 L881.25,858.67 L880.14,860.08 L879.01,861.46 L877.87,862.83 L876.71,864.18 L875.54,865.52 L874.34,866.83 L873.14,868.13 L871.91,869.41 L870.67,870.67 L869.41,871.91 L868.13,873.14 L866.83,874.34 L865.52,875.54 L864.18,876.71 L862.83,877.87 L861.46,879.01 L860.08,880.14 L858.67,881.25 L857.24,882.34 L855.80,883.42 L854.33,884.48 L852.85,885.52 L851.34,886.55 L849.81,887.56 L848.27,888.56 L846.70,889.54 L845.11,890.51 L843.50,891.46 L841.86,892.40 L840.21,893.32 L838.53,894.23 L836.83,895.12 L835.10,896.00 L833.35,896.87 L831.58,897.71 L829.78,898.55 L827.96,899.37 L826.11,900.17 L824.24,900.96 L822.34,901.74 L820.41,902.50 L818.45,903.25 L816.47,903.99 L814.45,904.71 L812.41,905.41 L810.34,906.11 L808.23,906.79 L806.10,907.45 L803.93,908.10 L801.73,908.74 L799.49,909.36 L797.22,909.98 L794.91,910.57 L792.56,911.16 L790.18,911.73 L787.76,912.28 L785.29,912.83 L782.79,913.36 L780.24,913.88 L777.64,914.38 L775.00,914.87 L772.31,915.35 L769.57,915.81 L766.77,916.26 L763.93,916.70 L761.02,917.13 L758.06,917.54 L755.03,917.94 L751.94,918.33 L748.78,918.70 L745.54,919.06 L742.23,919.41 L738.85,919.74 L735.37,920.07 L731.81,920.37 L728.15,920.67 L724.39,920.96 L720.52,921.23 L716.53,921.48 L712.42,921.73 L708.17,921.96 L703.77,922.18 L699.21,922.39 L694.46,922.59 L689.52,922.77 L684.36,922.94 L678.95,923.10 L673.26,923.24 L667.24,923.37 L660.85,923.49 L654.01,923.60 L646.64,923.69 L638.60,923.77 L629.70,923.84 L619.65,923.90 L607.95,923.94 L593.59,923.97 L573.83,923.99 L512.00,924.00 L450.17,923.99 L430.41,923.97 L416.05,923.94 L404.35,923.90 L394.30,923.84 L385.40,923.77 L377.36,923.69 L369.99,923.60 L363.15,923.49 L356.76,923.37 L350.74,923.24 L345.05,923.10 L339.64,922.94 L334.48,922.77 L329.54,922.59 L324.79,922.39 L320.23,922.18 L315.83,921.96 L311.58,921.73 L307.47,921.48 L303.48,921.23 L299.61,920.96 L295.85,920.67 L292.19,920.37 L288.63,920.07 L285.15,919.74 L281.77,919.41 L278.46,919.06 L275.22,918.70 L272.06,918.33 L268.97,917.94 L265.94,917.54 L262.98,917.13 L260.07,916.70 L257.23,916.26 L254.43,915.81 L251.69,915.35 L249.00,914.87 L246.36,914.38 L243.76,913.88 L241.21,913.36 L238.71,912.83 L236.24,912.28 L233.82,911.73 L231.44,911.16 L229.09,910.57 L226.78,909.98 L224.51,909.36 L222.27,908.74 L220.07,908.10 L217.90,907.45 L215.77,906.79 L213.66,906.11 L211.59,905.41 L209.55,904.71 L207.53,903.99 L205.55,903.25 L203.59,902.50 L201.66,901.74 L199.76,900.96 L197.89,900.17 L196.04,899.37 L194.22,898.55 L192.42,897.71 L190.65,896.87 L188.90,896.00 L187.17,895.12 L185.47,894.23 L183.79,893.32 L182.14,892.40 L180.50,891.46 L178.89,890.51 L177.30,889.54 L175.73,888.56 L174.19,887.56 L172.66,886.55 L171.15,885.52 L169.67,884.48 L168.20,883.42 L166.76,882.34 L165.33,881.25 L163.92,880.14 L162.54,879.01 L161.17,877.87 L159.82,876.71 L158.48,875.54 L157.17,874.34 L155.87,873.14 L154.59,871.91 L153.33,870.67 L152.09,869.41 L150.86,868.13 L149.66,866.83 L148.46,865.52 L147.29,864.18 L146.13,862.83 L144.99,861.46 L143.86,860.08 L142.75,858.67 L141.66,857.24 L140.58,855.80 L139.52,854.33 L138.48,852.85 L137.45,851.34 L136.44,849.81 L135.44,848.27 L134.46,846.70 L133.49,845.11 L132.54,843.50 L131.60,841.86 L130.68,840.21 L129.77,838.53 L128.88,836.83 L128.00,835.10 L127.13,833.35 L126.29,831.58 L125.45,829.78 L124.63,827.96 L123.83,826.11 L123.04,824.24 L122.26,822.34 L121.50,820.41 L120.75,818.45 L120.01,816.47 L119.29,814.45 L118.59,812.41 L117.89,810.34 L117.21,808.23 L116.55,806.10 L115.90,803.93 L115.26,801.73 L114.64,799.49 L114.02,797.22 L113.43,794.91 L112.84,792.56 L112.27,790.18 L111.72,787.76 L111.17,785.29 L110.64,782.79 L110.12,780.24 L109.62,777.64 L109.13,775.00 L108.65,772.31 L108.19,769.57 L107.74,766.77 L107.30,763.93 L106.87,761.02 L106.46,758.06 L106.06,755.03 L105.67,751.94 L105.30,748.78 L104.94,745.54 L104.59,742.23 L104.26,738.85 L103.93,735.37 L103.63,731.81 L103.33,728.15 L103.04,724.39 L102.77,720.52 L102.52,716.53 L102.27,712.42 L102.04,708.17 L101.82,703.77 L101.61,699.21 L101.41,694.46 L101.23,689.52 L101.06,684.36 L100.90,678.95 L100.76,673.26 L100.63,667.24 L100.51,660.85 L100.40,654.01 L100.31,646.64 L100.23,638.60 L100.16,629.70 L100.10,619.65 L100.06,607.95 L100.03,593.59 L100.01,573.83 L100.00,512.00 L100.01,450.17 L100.03,430.41 L100.06,416.05 L100.10,404.35 L100.16,394.30 L100.23,385.40 L100.31,377.36 L100.40,369.99 L100.51,363.15 L100.63,356.76 L100.76,350.74 L100.90,345.05 L101.06,339.64 L101.23,334.48 L101.41,329.54 L101.61,324.79 L101.82,320.23 L102.04,315.83 L102.27,311.58 L102.52,307.47 L102.77,303.48 L103.04,299.61 L103.33,295.85 L103.63,292.19 L103.93,288.63 L104.26,285.15 L104.59,281.77 L104.94,278.46 L105.30,275.22 L105.67,272.06 L106.06,268.97 L106.46,265.94 L106.87,262.98 L107.30,260.07 L107.74,257.23 L108.19,254.43 L108.65,251.69 L109.13,249.00 L109.62,246.36 L110.12,243.76 L110.64,241.21 L111.17,238.71 L111.72,236.24 L112.27,233.82 L112.84,231.44 L113.43,229.09 L114.02,226.78 L114.64,224.51 L115.26,222.27 L115.90,220.07 L116.55,217.90 L117.21,215.77 L117.89,213.66 L118.59,211.59 L119.29,209.55 L120.01,207.53 L120.75,205.55 L121.50,203.59 L122.26,201.66 L123.04,199.76 L123.83,197.89 L124.63,196.04 L125.45,194.22 L126.29,192.42 L127.13,190.65 L128.00,188.90 L128.88,187.17 L129.77,185.47 L130.68,183.79 L131.60,182.14 L132.54,180.50 L133.49,178.89 L134.46,177.30 L135.44,175.73 L136.44,174.19 L137.45,172.66 L138.48,171.15 L139.52,169.67 L140.58,168.20 L141.66,166.76 L142.75,165.33 L143.86,163.92 L144.99,162.54 L146.13,161.17 L147.29,159.82 L148.46,158.48 L149.66,157.17 L150.86,155.87 L152.09,154.59 L153.33,153.33 L154.59,152.09 L155.87,150.86 L157.17,149.66 L158.48,148.46 L159.82,147.29 L161.17,146.13 L162.54,144.99 L163.92,143.86 L165.33,142.75 L166.76,141.66 L168.20,140.58 L169.67,139.52 L171.15,138.48 L172.66,137.45 L174.19,136.44 L175.73,135.44 L177.30,134.46 L178.89,133.49 L180.50,132.54 L182.14,131.60 L183.79,130.68 L185.47,129.77 L187.17,128.88 L188.90,128.00 L190.65,127.13 L192.42,126.29 L194.22,125.45 L196.04,124.63 L197.89,123.83 L199.76,123.04 L201.66,122.26 L203.59,121.50 L205.55,120.75 L207.53,120.01 L209.55,119.29 L211.59,118.59 L213.66,117.89 L215.77,117.21 L217.90,116.55 L220.07,115.90 L222.27,115.26 L224.51,114.64 L226.78,114.02 L229.09,113.43 L231.44,112.84 L233.82,112.27 L236.24,111.72 L238.71,111.17 L241.21,110.64 L243.76,110.12 L246.36,109.62 L249.00,109.13 L251.69,108.65 L254.43,108.19 L257.23,107.74 L260.07,107.30 L262.98,106.87 L265.94,106.46 L268.97,106.06 L272.06,105.67 L275.22,105.30 L278.46,104.94 L281.77,104.59 L285.15,104.26 L288.63,103.93 L292.19,103.63 L295.85,103.33 L299.61,103.04 L303.48,102.77 L307.47,102.52 L311.58,102.27 L315.83,102.04 L320.23,101.82 L324.79,101.61 L329.54,101.41 L334.48,101.23 L339.64,101.06 L345.05,100.90 L350.74,100.76 L356.76,100.63 L363.15,100.51 L369.99,100.40 L377.36,100.31 L385.40,100.23 L394.30,100.16 L404.35,100.10 L416.05,100.06 L430.41,100.03 L450.17,100.01 L512.00,100.00 L573.83,100.01 L593.59,100.03 L607.95,100.06 L619.65,100.10 L629.70,100.16 L638.60,100.23 L646.64,100.31 L654.01,100.40 L660.85,100.51 L667.24,100.63 L673.26,100.76 L678.95,100.90 L684.36,101.06 L689.52,101.23 L694.46,101.41 L699.21,101.61 L703.77,101.82 L708.17,102.04 L712.42,102.27 L716.53,102.52 L720.52,102.77 L724.39,103.04 L728.15,103.33 L731.81,103.63 L735.37,103.93 L738.85,104.26 L742.23,104.59 L745.54,104.94 L748.78,105.30 L751.94,105.67 L755.03,106.06 L758.06,106.46 L761.02,106.87 L763.93,107.30 L766.77,107.74 L769.57,108.19 L772.31,108.65 L775.00,109.13 L777.64,109.62 L780.24,110.12 L782.79,110.64 L785.29,111.17 L787.76,111.72 L790.18,112.27 L792.56,112.84 L794.91,113.43 L797.22,114.02 L799.49,114.64 L801.73,115.26 L803.93,115.90 L806.10,116.55 L808.23,117.21 L810.34,117.89 L812.41,118.59 L814.45,119.29 L816.47,120.01 L818.45,120.75 L820.41,121.50 L822.34,122.26 L824.24,123.04 L826.11,123.83 L827.96,124.63 L829.78,125.45 L831.58,126.29 L833.35,127.13 L835.10,128.00 L836.83,128.88 L838.53,129.77 L840.21,130.68 L841.86,131.60 L843.50,132.54 L845.11,133.49 L846.70,134.46 L848.27,135.44 L849.81,136.44 L851.34,137.45 L852.85,138.48 L854.33,139.52 L855.80,140.58 L857.24,141.66 L858.67,142.75 L860.08,143.86 L861.46,144.99 L862.83,146.13 L864.18,147.29 L865.52,148.46 L866.83,149.66 L868.13,150.86 L869.41,152.09 L870.67,153.33 L871.91,154.59 L873.14,155.87 L874.34,157.17 L875.54,158.48 L876.71,159.82 L877.87,161.17 L879.01,162.54 L880.14,163.92 L881.25,165.33 L882.34,166.76 L883.42,168.20 L884.48,169.67 L885.52,171.15 L886.55,172.66 L887.56,174.19 L888.56,175.73 L889.54,177.30 L890.51,178.89 L891.46,180.50 L892.40,182.14 L893.32,183.79 L894.23,185.47 L895.12,187.17 L896.00,188.90 L896.87,190.65 L897.71,192.42 L898.55,194.22 L899.37,196.04 L900.17,197.89 L900.96,199.76 L901.74,201.66 L902.50,203.59 L903.25,205.55 L903.99,207.53 L904.71,209.55 L905.41,211.59 L906.11,213.66 L906.79,215.77 L907.45,217.90 L908.10,220.07 L908.74,222.27 L909.36,224.51 L909.98,226.78 L910.57,229.09 L911.16,231.44 L911.73,233.82 L912.28,236.24 L912.83,238.71 L913.36,241.21 L913.88,243.76 L914.38,246.36 L914.87,249.00 L915.35,251.69 L915.81,254.43 L916.26,257.23 L916.70,260.07 L917.13,262.98 L917.54,265.94 L917.94,268.97 L918.33,272.06 L918.70,275.22 L919.06,278.46 L919.41,281.77 L919.74,285.15 L920.07,288.63 L920.37,292.19 L920.67,295.85 L920.96,299.61 L921.23,303.48 L921.48,307.47 L921.73,311.58 L921.96,315.83 L922.18,320.23 L922.39,324.79 L922.59,329.54 L922.77,334.48 L922.94,339.64 L923.10,345.05 L923.24,350.74 L923.37,356.76 L923.49,363.15 L923.60,369.99 L923.69,377.36 L923.77,385.40 L923.84,394.30 L923.90,404.35 L923.94,416.05 L923.97,430.41 L923.99,450.17 Z" fill="url(#sheen)"/></g>
<path d="M924.00,512.00 L923.99,573.83 L923.97,593.59 L923.94,607.95 L923.90,619.65 L923.84,629.70 L923.77,638.60 L923.69,646.64 L923.60,654.01 L923.49,660.85 L923.37,667.24 L923.24,673.26 L923.10,678.95 L922.94,684.36 L922.77,689.52 L922.59,694.46 L922.39,699.21 L922.18,703.77 L921.96,708.17 L921.73,712.42 L921.48,716.53 L921.23,720.52 L920.96,724.39 L920.67,728.15 L920.37,731.81 L920.07,735.37 L919.74,738.85 L919.41,742.23 L919.06,745.54 L918.70,748.78 L918.33,751.94 L917.94,755.03 L917.54,758.06 L917.13,761.02 L916.70,763.93 L916.26,766.77 L915.81,769.57 L915.35,772.31 L914.87,775.00 L914.38,777.64 L913.88,780.24 L913.36,782.79 L912.83,785.29 L912.28,787.76 L911.73,790.18 L911.16,792.56 L910.57,794.91 L909.98,797.22 L909.36,799.49 L908.74,801.73 L908.10,803.93 L907.45,806.10 L906.79,808.23 L906.11,810.34 L905.41,812.41 L904.71,814.45 L903.99,816.47 L903.25,818.45 L902.50,820.41 L901.74,822.34 L900.96,824.24 L900.17,826.11 L899.37,827.96 L898.55,829.78 L897.71,831.58 L896.87,833.35 L896.00,835.10 L895.12,836.83 L894.23,838.53 L893.32,840.21 L892.40,841.86 L891.46,843.50 L890.51,845.11 L889.54,846.70 L888.56,848.27 L887.56,849.81 L886.55,851.34 L885.52,852.85 L884.48,854.33 L883.42,855.80 L882.34,857.24 L881.25,858.67 L880.14,860.08 L879.01,861.46 L877.87,862.83 L876.71,864.18 L875.54,865.52 L874.34,866.83 L873.14,868.13 L871.91,869.41 L870.67,870.67 L869.41,871.91 L868.13,873.14 L866.83,874.34 L865.52,875.54 L864.18,876.71 L862.83,877.87 L861.46,879.01 L860.08,880.14 L858.67,881.25 L857.24,882.34 L855.80,883.42 L854.33,884.48 L852.85,885.52 L851.34,886.55 L849.81,887.56 L848.27,888.56 L846.70,889.54 L845.11,890.51 L843.50,891.46 L841.86,892.40 L840.21,893.32 L838.53,894.23 L836.83,895.12 L835.10,896.00 L833.35,896.87 L831.58,897.71 L829.78,898.55 L827.96,899.37 L826.11,900.17 L824.24,900.96 L822.34,901.74 L820.41,902.50 L818.45,903.25 L816.47,903.99 L814.45,904.71 L812.41,905.41 L810.34,906.11 L808.23,906.79 L806.10,907.45 L803.93,908.10 L801.73,908.74 L799.49,909.36 L797.22,909.98 L794.91,910.57 L792.56,911.16 L790.18,911.73 L787.76,912.28 L785.29,912.83 L782.79,913.36 L780.24,913.88 L777.64,914.38 L775.00,914.87 L772.31,915.35 L769.57,915.81 L766.77,916.26 L763.93,916.70 L761.02,917.13 L758.06,917.54 L755.03,917.94 L751.94,918.33 L748.78,918.70 L745.54,919.06 L742.23,919.41 L738.85,919.74 L735.37,920.07 L731.81,920.37 L728.15,920.67 L724.39,920.96 L720.52,921.23 L716.53,921.48 L712.42,921.73 L708.17,921.96 L703.77,922.18 L699.21,922.39 L694.46,922.59 L689.52,922.77 L684.36,922.94 L678.95,923.10 L673.26,923.24 L667.24,923.37 L660.85,923.49 L654.01,923.60 L646.64,923.69 L638.60,923.77 L629.70,923.84 L619.65,923.90 L607.95,923.94 L593.59,923.97 L573.83,923.99 L512.00,924.00 L450.17,923.99 L430.41,923.97 L416.05,923.94 L404.35,923.90 L394.30,923.84 L385.40,923.77 L377.36,923.69 L369.99,923.60 L363.15,923.49 L356.76,923.37 L350.74,923.24 L345.05,923.10 L339.64,922.94 L334.48,922.77 L329.54,922.59 L324.79,922.39 L320.23,922.18 L315.83,921.96 L311.58,921.73 L307.47,921.48 L303.48,921.23 L299.61,920.96 L295.85,920.67 L292.19,920.37 L288.63,920.07 L285.15,919.74 L281.77,919.41 L278.46,919.06 L275.22,918.70 L272.06,918.33 L268.97,917.94 L265.94,917.54 L262.98,917.13 L260.07,916.70 L257.23,916.26 L254.43,915.81 L251.69,915.35 L249.00,914.87 L246.36,914.38 L243.76,913.88 L241.21,913.36 L238.71,912.83 L236.24,912.28 L233.82,911.73 L231.44,911.16 L229.09,910.57 L226.78,909.98 L224.51,909.36 L222.27,908.74 L220.07,908.10 L217.90,907.45 L215.77,906.79 L213.66,906.11 L211.59,905.41 L209.55,904.71 L207.53,903.99 L205.55,903.25 L203.59,902.50 L201.66,901.74 L199.76,900.96 L197.89,900.17 L196.04,899.37 L194.22,898.55 L192.42,897.71 L190.65,896.87 L188.90,896.00 L187.17,895.12 L185.47,894.23 L183.79,893.32 L182.14,892.40 L180.50,891.46 L178.89,890.51 L177.30,889.54 L175.73,888.56 L174.19,887.56 L172.66,886.55 L171.15,885.52 L169.67,884.48 L168.20,883.42 L166.76,882.34 L165.33,881.25 L163.92,880.14 L162.54,879.01 L161.17,877.87 L159.82,876.71 L158.48,875.54 L157.17,874.34 L155.87,873.14 L154.59,871.91 L153.33,870.67 L152.09,869.41 L150.86,868.13 L149.66,866.83 L148.46,865.52 L147.29,864.18 L146.13,862.83 L144.99,861.46 L143.86,860.08 L142.75,858.67 L141.66,857.24 L140.58,855.80 L139.52,854.33 L138.48,852.85 L137.45,851.34 L136.44,849.81 L135.44,848.27 L134.46,846.70 L133.49,845.11 L132.54,843.50 L131.60,841.86 L130.68,840.21 L129.77,838.53 L128.88,836.83 L128.00,835.10 L127.13,833.35 L126.29,831.58 L125.45,829.78 L124.63,827.96 L123.83,826.11 L123.04,824.24 L122.26,822.34 L121.50,820.41 L120.75,818.45 L120.01,816.47 L119.29,814.45 L118.59,812.41 L117.89,810.34 L117.21,808.23 L116.55,806.10 L115.90,803.93 L115.26,801.73 L114.64,799.49 L114.02,797.22 L113.43,794.91 L112.84,792.56 L112.27,790.18 L111.72,787.76 L111.17,785.29 L110.64,782.79 L110.12,780.24 L109.62,777.64 L109.13,775.00 L108.65,772.31 L108.19,769.57 L107.74,766.77 L107.30,763.93 L106.87,761.02 L106.46,758.06 L106.06,755.03 L105.67,751.94 L105.30,748.78 L104.94,745.54 L104.59,742.23 L104.26,738.85 L103.93,735.37 L103.63,731.81 L103.33,728.15 L103.04,724.39 L102.77,720.52 L102.52,716.53 L102.27,712.42 L102.04,708.17 L101.82,703.77 L101.61,699.21 L101.41,694.46 L101.23,689.52 L101.06,684.36 L100.90,678.95 L100.76,673.26 L100.63,667.24 L100.51,660.85 L100.40,654.01 L100.31,646.64 L100.23,638.60 L100.16,629.70 L100.10,619.65 L100.06,607.95 L100.03,593.59 L100.01,573.83 L100.00,512.00 L100.01,450.17 L100.03,430.41 L100.06,416.05 L100.10,404.35 L100.16,394.30 L100.23,385.40 L100.31,377.36 L100.40,369.99 L100.51,363.15 L100.63,356.76 L100.76,350.74 L100.90,345.05 L101.06,339.64 L101.23,334.48 L101.41,329.54 L101.61,324.79 L101.82,320.23 L102.04,315.83 L102.27,311.58 L102.52,307.47 L102.77,303.48 L103.04,299.61 L103.33,295.85 L103.63,292.19 L103.93,288.63 L104.26,285.15 L104.59,281.77 L104.94,278.46 L105.30,275.22 L105.67,272.06 L106.06,268.97 L106.46,265.94 L106.87,262.98 L107.30,260.07 L107.74,257.23 L108.19,254.43 L108.65,251.69 L109.13,249.00 L109.62,246.36 L110.12,243.76 L110.64,241.21 L111.17,238.71 L111.72,236.24 L112.27,233.82 L112.84,231.44 L113.43,229.09 L114.02,226.78 L114.64,224.51 L115.26,222.27 L115.90,220.07 L116.55,217.90 L117.21,215.77 L117.89,213.66 L118.59,211.59 L119.29,209.55 L120.01,207.53 L120.75,205.55 L121.50,203.59 L122.26,201.66 L123.04,199.76 L123.83,197.89 L124.63,196.04 L125.45,194.22 L126.29,192.42 L127.13,190.65 L128.00,188.90 L128.88,187.17 L129.77,185.47 L130.68,183.79 L131.60,182.14 L132.54,180.50 L133.49,178.89 L134.46,177.30 L135.44,175.73 L136.44,174.19 L137.45,172.66 L138.48,171.15 L139.52,169.67 L140.58,168.20 L141.66,166.76 L142.75,165.33 L143.86,163.92 L144.99,162.54 L146.13,161.17 L147.29,159.82 L148.46,158.48 L149.66,157.17 L150.86,155.87 L152.09,154.59 L153.33,153.33 L154.59,152.09 L155.87,150.86 L157.17,149.66 L158.48,148.46 L159.82,147.29 L161.17,146.13 L162.54,144.99 L163.92,143.86 L165.33,142.75 L166.76,141.66 L168.20,140.58 L169.67,139.52 L171.15,138.48 L172.66,137.45 L174.19,136.44 L175.73,135.44 L177.30,134.46 L178.89,133.49 L180.50,132.54 L182.14,131.60 L183.79,130.68 L185.47,129.77 L187.17,128.88 L188.90,128.00 L190.65,127.13 L192.42,126.29 L194.22,125.45 L196.04,124.63 L197.89,123.83 L199.76,123.04 L201.66,122.26 L203.59,121.50 L205.55,120.75 L207.53,120.01 L209.55,119.29 L211.59,118.59 L213.66,117.89 L215.77,117.21 L217.90,116.55 L220.07,115.90 L222.27,115.26 L224.51,114.64 L226.78,114.02 L229.09,113.43 L231.44,112.84 L233.82,112.27 L236.24,111.72 L238.71,111.17 L241.21,110.64 L243.76,110.12 L246.36,109.62 L249.00,109.13 L251.69,108.65 L254.43,108.19 L257.23,107.74 L260.07,107.30 L262.98,106.87 L265.94,106.46 L268.97,106.06 L272.06,105.67 L275.22,105.30 L278.46,104.94 L281.77,104.59 L285.15,104.26 L288.63,103.93 L292.19,103.63 L295.85,103.33 L299.61,103.04 L303.48,102.77 L307.47,102.52 L311.58,102.27 L315.83,102.04 L320.23,101.82 L324.79,101.61 L329.54,101.41 L334.48,101.23 L339.64,101.06 L345.05,100.90 L350.74,100.76 L356.76,100.63 L363.15,100.51 L369.99,100.40 L377.36,100.31 L385.40,100.23 L394.30,100.16 L404.35,100.10 L416.05,100.06 L430.41,100.03 L450.17,100.01 L512.00,100.00 L573.83,100.01 L593.59,100.03 L607.95,100.06 L619.65,100.10 L629.70,100.16 L638.60,100.23 L646.64,100.31 L654.01,100.40 L660.85,100.51 L667.24,100.63 L673.26,100.76 L678.95,100.90 L684.36,101.06 L689.52,101.23 L694.46,101.41 L699.21,101.61 L703.77,101.82 L708.17,102.04 L712.42,102.27 L716.53,102.52 L720.52,102.77 L724.39,103.04 L728.15,103.33 L731.81,103.63 L735.37,103.93 L738.85,104.26 L742.23,104.59 L745.54,104.94 L748.78,105.30 L751.94,105.67 L755.03,106.06 L758.06,106.46 L761.02,106.87 L763.93,107.30 L766.77,107.74 L769.57,108.19 L772.31,108.65 L775.00,109.13 L777.64,109.62 L780.24,110.12 L782.79,110.64 L785.29,111.17 L787.76,111.72 L790.18,112.27 L792.56,112.84 L794.91,113.43 L797.22,114.02 L799.49,114.64 L801.73,115.26 L803.93,115.90 L806.10,116.55 L808.23,117.21 L810.34,117.89 L812.41,118.59 L814.45,119.29 L816.47,120.01 L818.45,120.75 L820.41,121.50 L822.34,122.26 L824.24,123.04 L826.11,123.83 L827.96,124.63 L829.78,125.45 L831.58,126.29 L833.35,127.13 L835.10,128.00 L836.83,128.88 L838.53,129.77 L840.21,130.68 L841.86,131.60 L843.50,132.54 L845.11,133.49 L846.70,134.46 L848.27,135.44 L849.81,136.44 L851.34,137.45 L852.85,138.48 L854.33,139.52 L855.80,140.58 L857.24,141.66 L858.67,142.75 L860.08,143.86 L861.46,144.99 L862.83,146.13 L864.18,147.29 L865.52,148.46 L866.83,149.66 L868.13,150.86 L869.41,152.09 L870.67,153.33 L871.91,154.59 L873.14,155.87 L874.34,157.17 L875.54,158.48 L876.71,159.82 L877.87,161.17 L879.01,162.54 L880.14,163.92 L881.25,165.33 L882.34,166.76 L883.42,168.20 L884.48,169.67 L885.52,171.15 L886.55,172.66 L887.56,174.19 L888.56,175.73 L889.54,177.30 L890.51,178.89 L891.46,180.50 L892.40,182.14 L893.32,183.79 L894.23,185.47 L895.12,187.17 L896.00,188.90 L896.87,190.65 L897.71,192.42 L898.55,194.22 L899.37,196.04 L900.17,197.89 L900.96,199.76 L901.74,201.66 L902.50,203.59 L903.25,205.55 L903.99,207.53 L904.71,209.55 L905.41,211.59 L906.11,213.66 L906.79,215.77 L907.45,217.90 L908.10,220.07 L908.74,222.27 L909.36,224.51 L909.98,226.78 L910.57,229.09 L911.16,231.44 L911.73,233.82 L912.28,236.24 L912.83,238.71 L913.36,241.21 L913.88,243.76 L914.38,246.36 L914.87,249.00 L915.35,251.69 L915.81,254.43 L916.26,257.23 L916.70,260.07 L917.13,262.98 L917.54,265.94 L917.94,268.97 L918.33,272.06 L918.70,275.22 L919.06,278.46 L919.41,281.77 L919.74,285.15 L920.07,288.63 L920.37,292.19 L920.67,295.85 L920.96,299.61 L921.23,303.48 L921.48,307.47 L921.73,311.58 L921.96,315.83 L922.18,320.23 L922.39,324.79 L922.59,329.54 L922.77,334.48 L922.94,339.64 L923.10,345.05 L923.24,350.74 L923.37,356.76 L923.49,363.15 L923.60,369.99 L923.69,377.36 L923.77,385.40 L923.84,394.30 L923.90,404.35 L923.94,416.05 L923.97,430.41 L923.99,450.17 Z" fill="none" stroke="#ffffff" stroke-opacity="0.10" stroke-width="3"/>
</svg>